<?xml version="1.0" encoding="utf-8"?>
<!-- Generator: Adobe Illustrator 16.0.0, SVG Export Plug-In . SVG Version: 6.00 Build 0)  -->
<!DOCTYPE svg PUBLIC "-//W3C//DTD SVG 1.1//EN" "http://www.w3.org/Graphics/SVG/1.1/DTD/svg11.dtd">
<svg version="1.1" id="Layer_1" xmlns="http://www.w3.org/2000/svg" xmlns:xlink="http://www.w3.org/1999/xlink" x="0px" y="0px"
	 width="110px" height="110px" viewBox="0 0 110 110" enable-background="new 0 0 110 110" xml:space="preserve">
<g id="Artboard">
</g>
<g id="Multicolor">
	<circle fill="#3ABCA5" cx="55" cy="55" r="55"/>
	<g>
		<path fill="#84462D" d="M81,34c0-1.105-0.895-2-2-2H31c-1.105,0-2,0.895-2,2v51c0,1.105,0.895,2,2,2h48c1.105,0,2-0.895,2-2V34z"
			/>
		<rect x="33" y="36" fill="#FFFFFF" width="44" height="47"/>
		<path fill="#FACB1B" d="M65,29h-4c0-3.313-2.688-6-6-6c-3.313,0-6,2.687-6,6h-4c-1.104,0-2,0.896-2,2v8c0,1.104,0.896,2,2,2h20
			c1.105,0,2-0.896,2-2v-8C67,29.896,66.104,29,65,29z M55,25c1.104,0,2,0.896,2,2s-0.896,2-2,2c-1.104,0-2-0.896-2-2
			S53.896,25,55,25z"/>
		<g>
			<path fill="#DF2C2C" d="M59.57,78.5c-3.309,0-6-2.691-6-6s2.691-6,6-6c3.31,0,6,2.691,6,6S62.88,78.5,59.57,78.5z M59.57,69.5
				c-1.653,0-3,1.346-3,3s1.347,3,3,3c1.654,0,3-1.346,3-3S61.227,69.5,59.57,69.5z"/>
		</g>
		<polygon fill="#5B5C5F" points="72.143,53.743 70.328,51.929 67.607,54.65 64.885,51.929 63.07,53.743 65.792,56.464 
			63.07,59.186 64.885,61 67.607,58.279 70.328,61 72.143,59.186 69.421,56.464 		"/>
		<polygon fill="#5B5C5F" points="48.071,47.814 46.257,46 43.536,48.721 40.743,45.929 38.929,47.743 41.721,50.536 39,53.257 
			40.814,55.071 43.536,52.35 46.186,55 48,53.186 45.35,50.536 		"/>
		<path fill="#DF2C2C" d="M59.167,52l-8.096,0.947l2.231,2.348C50.264,57.1,42.571,62.864,42.571,75c0,0.828,0.671,1.5,1.5,1.5
			c0.829,0,1.5-0.672,1.5-1.5c0-11.708,8.142-16.568,9.862-17.463l2.375,2.5L59.167,52z"/>
		<path fill="#FBE158" d="M65,29h-4c0-3.313-2.688-6-6-6c-3.313,0-6,2.687-6,6h-4c-1.104,0-2,0.896-2,2v4h24v-4
			C67,29.896,66.104,29,65,29z M55,29c-1.104,0-2-0.896-2-2s0.896-2,2-2c1.104,0,2,0.896,2,2S56.104,29,55,29z"/>
	</g>
</g>
</svg>
