<?xml version="1.0" encoding="utf-8"?>
<!-- Generator: Adobe Illustrator 16.0.0, SVG Export Plug-In . SVG Version: 6.00 Build 0)  -->
<!DOCTYPE svg PUBLIC "-//W3C//DTD SVG 1.1//EN" "http://www.w3.org/Graphics/SVG/1.1/DTD/svg11.dtd">
<svg version="1.1" id="Layer_1" xmlns="http://www.w3.org/2000/svg" xmlns:xlink="http://www.w3.org/1999/xlink" x="0px" y="0px"
	 width="110px" height="110px" viewBox="0 0 110 110" enable-background="new 0 0 110 110" xml:space="preserve">
<g id="Artboard">
</g>
<g id="Multicolor">
	<circle fill="#608798" cx="55" cy="55" r="55"/>
	<g>
		<rect x="37" y="27" fill="#FFFFFF" width="50" height="60"/>
		<g>
			<path fill="#FBE158" d="M65.725,73c0,4.418,3.582,8,8,8s8.416-3.602,8-8c-0.424-4.477-3.894-8.042-8-8
				C69.307,65.046,65.725,68.582,65.725,73z"/>
			<path fill="#059BBF" d="M65.725,73c0,4.42,3.58,8,8,8c3.359,0,6.232-2.066,7.42-5l-14.781-6.152
				C65.951,70.813,65.725,71.88,65.725,73z"/>
			<path fill="#4AC3AF" d="M65.712,73.003c0,2.82,1.46,5.3,3.667,6.728l4.327-6.82l-7.353-3.061
				C65.939,70.816,65.712,71.883,65.712,73.003z"/>
			<path fill="#FA5655" d="M66.363,69.848l7.361,3.066V65C70.424,65,67.591,67,66.363,69.848z"/>
		</g>
		<rect x="77" y="40" fill="#4AC3AF" width="4" height="18"/>
		<rect x="69.712" y="48" fill="#4AC3AF" width="4" height="10"/>
		<g>
			<circle fill="#CFD3D4" cx="60.333" cy="68.167" r="1.5"/>
			<rect x="46.712" y="67.667" fill="#CFD3D4" width="10" height="1"/>
		</g>
		<g>
			<circle fill="#CFD3D4" cx="60.333" cy="73.333" r="1.5"/>
			<rect x="46.712" y="72.833" fill="#CFD3D4" width="10" height="1"/>
		</g>
		<g>
			<circle fill="#CFD3D4" cx="60.333" cy="78.5" r="1.5"/>
			<rect x="46.712" y="78" fill="#CFD3D4" width="10" height="1"/>
		</g>
		<path fill="#84462D" d="M39.742,58.021L28.944,68.818c-1.344,1.345-3.522,1.345-4.867,0c-1.345-1.344-1.344-3.521,0-4.866
			L34.9,53.131C36.098,55.126,37.758,56.805,39.742,58.021z"/>
		<path fill="#9C6144" d="M36.992,55.826L24.041,68.777c-1.308-1.344-1.296-3.492,0.03-4.824L34.9,53.125
			C35.489,54.104,36.195,55.01,36.992,55.826z"/>
		<path fill="#FFFFFF" d="M47.4,60.1c-7.995,0-14.5-6.504-14.5-14.5s6.505-14.5,14.5-14.5s14.5,6.505,14.5,14.5
			S55.396,60.1,47.4,60.1z"/>
		<path fill="#CFD3D4" d="M47.4,31.088c8.012,0,14.512,6.5,14.512,14.512c0,8.012-6.5,14.511-14.512,14.511
			c-8.041,0-14.512-6.561-14.512-14.511C32.888,37.588,39.388,31.088,47.4,31.088 M47.4,29.1c-9.098,0-16.5,7.402-16.5,16.5
			s7.402,16.5,16.5,16.5s16.5-7.401,16.5-16.5S56.499,29.1,47.4,29.1L47.4,29.1z"/>
		<circle fill="#6FDAF1" cx="47.4" cy="45.6" r="11.558"/>
		<path fill="#9CE5F4" d="M47.4,34.042c-6.383,0-11.558,5.175-11.558,11.558c0,3.158,1.27,6.018,3.323,8.104l16.339-16.339
			C53.418,35.311,50.559,34.042,47.4,34.042z"/>
	</g>
</g>
</svg>
