<?xml version="1.0" encoding="utf-8"?>
<!-- Generator: Adobe Illustrator 16.0.0, SVG Export Plug-In . SVG Version: 6.00 Build 0)  -->
<!DOCTYPE svg PUBLIC "-//W3C//DTD SVG 1.1//EN" "http://www.w3.org/Graphics/SVG/1.1/DTD/svg11.dtd">
<svg version="1.1" id="Layer_1" xmlns="http://www.w3.org/2000/svg" xmlns:xlink="http://www.w3.org/1999/xlink" x="0px" y="0px"
	 width="110px" height="110px" viewBox="0 0 110 110" enable-background="new 0 0 110 110" xml:space="preserve">
<g id="Artboard">
</g>
<g id="Multicolor">
	<circle fill="#608798" cx="55" cy="55" r="55"/>
	<g>
		<path fill="#FFFFFF" d="M73,81c0,3.314-2.686,6-6,6H43c-3.314,0-6-2.686-6-6V29c0-3.314,2.686-6,6-6h24c3.314,0,6,2.686,6,6V81z"
			/>
		<polygon fill="#4AC3AF" points="39,35 39,65.872 55.171,35 		"/>
		<polygon fill="#21B2D1" points="39,74.491 39,75 68.24,75 47.208,58.822 		"/>
		<polygon fill="#FBE158" points="59.686,35 48.621,56.124 71,73.338 71,35 		"/>
		<circle fill="#B6BCBD" cx="48" cy="30" r="1"/>
		<path fill="#B6BCBD" d="M63,30c0,0.552-0.448,1-1,1H52c-0.552,0-1-0.448-1-1s0.448-1,1-1h10C62.552,29,63,29.448,63,30z"/>
		<circle fill="#CFD3D4" cx="55" cy="81" r="4"/>
		<rect x="53" y="79" fill="#FFFFFF" width="4" height="4"/>
		<polygon fill="#F0F1F1" points="48.621,56.124 59.686,35 55.171,35 39,65.872 39,74.491 47.208,58.822 68.24,75 71,75 71,73.338 
					"/>
		<path fill="#DF2C2C" d="M68,46.5c0,3.59-6.5,15.6-6.5,15.6S55,50.09,55,46.5s2.91-6.5,6.5-6.5S68,42.91,68,46.5z"/>
		<circle fill="#FFFFFF" cx="61.5" cy="46.5" r="2.9"/>
	</g>
</g>
</svg>
