<?xml version="1.0" encoding="utf-8"?>
<!-- Generator: Adobe Illustrator 16.0.0, SVG Export Plug-In . SVG Version: 6.00 Build 0)  -->
<!DOCTYPE svg PUBLIC "-//W3C//DTD SVG 1.1//EN" "http://www.w3.org/Graphics/SVG/1.1/DTD/svg11.dtd">
<svg version="1.1" id="Layer_1" xmlns="http://www.w3.org/2000/svg" xmlns:xlink="http://www.w3.org/1999/xlink" x="0px" y="0px"
	 width="110px" height="110px" viewBox="0 0 110 110" enable-background="new 0 0 110 110" xml:space="preserve">
<g id="Artboard">
</g>
<g id="Multicolor">
	<g>
		<circle fill="#608798" cx="55" cy="55" r="55"/>
	</g>
	<g>
		<path fill="#FBC8C8" d="M70,45.036l-2,1l-3-10l-17,5c0,0,1.5-2.107,3-5c-7.25,0-9,10-9,10l-1-0.5V53l4,10l5.105,3.995
			C50.674,67.634,51.489,68,52.345,68H55h2.654c0.857,0,1.672-0.366,2.24-1.005L65,63l3.193-7.982
			C71.039,54.827,72,50.517,72,47.258C72,46.147,71,45.036,70,45.036z"/>
		<g>
			<path fill="#FFFFFF" d="M83,76c-0.615-1.333-1.698-2.395-3.043-2.982L68,69H55H42l-11.957,4.018
				C28.698,73.605,27.615,74.667,27,76l-4,11h64L83,76z"/>
		</g>
		<g>
			<polygon fill="#F79392" points="24.078,84.036 85.922,84.036 84.831,81.036 25.169,81.036 			"/>
		</g>
		<g>
			<path fill="#F79392" d="M27,76l-0.377,1.036h56.754L83,76c-0.352-0.76-0.867-1.417-1.484-1.964H28.484
				C27.867,74.583,27.351,75.24,27,76z"/>
		</g>
		<g>
			<path fill="#21B2D1" d="M55,79.072c3.857,0,13-1,13-7c0-0.676,0-1.789,0-3.072h-3v3.072c0,0-2,4-10,4s-10-4-10-4V69h-3
				c0,1.283,0,2.396,0,3.072C42,78.072,51.143,79.072,55,79.072z"/>
		</g>
		<path fill="#F7B4B4" d="M57.654,68H55h-2.655c-0.856,0-1.671-0.366-2.24-1.005L45,63v9.036c0,0,2,4,10,4s10-4,10-4V63
			l-5.105,3.995C59.326,67.634,58.512,68,57.654,68z"/>
		<path fill="#FBC8C8" d="M50.105,66.995L45,63v9.036c0,0,2,4,10,4V68h-2.655C51.489,68,50.674,67.635,50.105,66.995z"/>
		<path fill="#FBD7D7" d="M51,36.036c-7.25,0-9,10-9,10l-2-1c-1,0-2,1.111-2,2.222c0,3.259,0.961,7.568,3.807,7.76L45,63
			l5.105,3.995c0.569,0.64,1.384,1.005,2.24,1.005H55V38.977l-7,2.059C48,41.036,49.5,38.929,51,36.036z"/>
		<g>
			<path fill="#3E3E3F" d="M52,47.036c0-1.104-0.896-2-2-2c-0.002,0-0.004,0-0.006,0C49.995,45.058,50,45.078,50,45.099
				c0,1.103-0.892,1.996-1.994,2c0.033,1.075,0.91,1.938,1.994,1.938C51.104,49.036,52,48.141,52,47.036z"/>
		</g>
		<g>
			<path fill="#3E3E3F" d="M61.994,47.036c0-1.104-0.896-2-2-2c-0.002,0-0.004,0-0.006,0c0,0.021,0.006,0.041,0.006,0.062
				c0,1.103-0.893,1.996-1.994,2c0.033,1.075,0.91,1.938,1.994,1.938C61.098,49.036,61.994,48.141,61.994,47.036z"/>
		</g>
		<g>
			<path fill="#F79392" d="M50,58.036h10c0,0,0,3-5,3S50,58.036,50,58.036z"/>
		</g>
		<g>
			<path fill="#84462D" d="M55,26.429c-8.284,0-15,6.42-15,15v3.607l2,1c0,0,1.75-10,9-10c-1.5,2.893-3,5-3,5l17-5l3,10l2-1v-3.607
				C70,32.849,63.284,26.429,55,26.429z"/>
		</g>
		<path fill="#9C6144" d="M40,41.429v3.607l2,1c0,0,1.75-10,9-10c-1.5,2.893-3,5-3,5l7-2.059V26.429
			C46.716,26.429,40,32.849,40,41.429z"/>
	</g>
</g>
</svg>
