<?xml version="1.0" encoding="utf-8"?>
<!-- Generator: Adobe Illustrator 16.0.0, SVG Export Plug-In . SVG Version: 6.00 Build 0)  -->
<!DOCTYPE svg PUBLIC "-//W3C//DTD SVG 1.1//EN" "http://www.w3.org/Graphics/SVG/1.1/DTD/svg11.dtd">
<svg version="1.1" id="Layer_1" xmlns="http://www.w3.org/2000/svg" xmlns:xlink="http://www.w3.org/1999/xlink" x="0px" y="0px"
	 width="110px" height="110px" viewBox="0 0 110 110" enable-background="new 0 0 110 110" xml:space="preserve">
<g id="Artboard">
</g>
<g id="Multicolor">
	<circle fill="#608798" cx="55" cy="55" r="55"/>
	<g>
		<path fill="#FFFFFF" d="M79,27c0-2.209-1.791-4-4-4H35c-2.209,0-4,1.791-4,4v56c0,2.209,1.791,4,4,4h40c2.209,0,4-1.791,4-4V27z"
			/>
		<rect x="35" y="29" fill="#3E3E3F" width="40" height="48"/>
		<circle fill="#CFD3D4" cx="55" cy="82" r="2"/>
		<g>
			<circle fill="#B6BCBD" cx="59.667" cy="58.333" r="1.333"/>
			<rect x="64" y="58" fill="#B6BCBD" width="5" height="1"/>
		</g>
		<g>
			<circle fill="#B6BCBD" cx="59.667" cy="64.667" r="1.333"/>
			<rect x="64" y="64.333" fill="#B6BCBD" width="5" height="1"/>
		</g>
		<circle fill="#3E3E3F" cx="55" cy="26" r="1"/>
		<polygon fill="#5B5C5F" points="35.009,67 73,29.009 35.009,29.009 		"/>
		<rect x="42" y="44" fill="#FBE158" width="6" height="7"/>
		<rect x="52" y="40" fill="#17B198" width="6" height="11"/>
		<rect x="63" y="35" fill="#059BBF" width="6" height="16"/>
		<g>
			<circle fill="#FACB1B" cx="47" cy="63" r="8"/>
			<path fill="#4AC3AF" d="M55,63c0,4.42-3.58,8-8,8c-3.36,0-6.233-2.066-7.42-5l14.78-6.152C54.773,60.813,55,61.88,55,63z"/>
			<path fill="#21B2D1" d="M55.013,63.003c0,2.82-1.46,5.3-3.667,6.728l-4.327-6.82l7.353-3.061
				C54.786,60.816,55.013,61.883,55.013,63.003z"/>
			<path fill="#FA5655" d="M54.36,59.848L47,62.913V55C50.3,55,53.133,57,54.36,59.848z"/>
		</g>
	</g>
</g>
</svg>
