<?xml version="1.0" encoding="utf-8"?>
<!-- Generator: Adobe Illustrator 16.0.0, SVG Export Plug-In . SVG Version: 6.00 Build 0)  -->
<!DOCTYPE svg PUBLIC "-//W3C//DTD SVG 1.1//EN" "http://www.w3.org/Graphics/SVG/1.1/DTD/svg11.dtd">
<svg version="1.1" id="Layer_1" xmlns="http://www.w3.org/2000/svg" xmlns:xlink="http://www.w3.org/1999/xlink" x="0px" y="0px"
	 width="100px" height="100px" viewBox="0 0 100 100" enable-background="new 0 0 100 100" xml:space="preserve">
<path id="Facebook_1_" fill="#21242D" d="M98.199,92.797c0,2.926-2.373,5.298-5.299,5.298H68.438V60.918h12.479l1.867-14.488H68.438
	v-9.25c0-4.194,1.164-7.053,7.18-7.053l7.672-0.003V17.166c-1.326-0.177-5.881-0.571-11.18-0.571
	c-11.061,0-18.635,6.751-18.635,19.151V46.43h-12.51v14.488h12.51v37.177H7.497c-2.927,0-5.298-2.372-5.298-5.298V7.394
	c0-2.927,2.372-5.299,5.298-5.299H92.9c2.926,0,5.299,2.372,5.299,5.299V92.797z"/>
</svg>
