<?xml version="1.0" encoding="utf-8"?>
<!-- Generator: Adobe Illustrator 16.0.0, SVG Export Plug-In . SVG Version: 6.00 Build 0)  -->
<!DOCTYPE svg PUBLIC "-//W3C//DTD SVG 1.1//EN" "http://www.w3.org/Graphics/SVG/1.1/DTD/svg11.dtd">
<svg version="1.1" id="Layer_1" xmlns="http://www.w3.org/2000/svg" xmlns:xlink="http://www.w3.org/1999/xlink" x="0px" y="0px"
	 width="100px" height="100px" viewBox="0 0 100 100" enable-background="new 0 0 100 100" xml:space="preserve">
<g>
	<path fill="#21242D" d="M50.196,3.095c-26.506,0-47.997,21.574-47.997,48.193c0,21.288,13.752,39.351,32.829,45.724
		c2.399,0.443,3.275-1.045,3.275-2.322c0-1.145-0.042-4.174-0.065-8.195c-13.354,2.913-16.171-6.46-16.171-6.46
		c-2.181-5.566-5.327-7.048-5.327-7.048c-4.359-2.991,0.329-2.931,0.329-2.931c4.815,0.34,7.351,4.967,7.351,4.967
		c4.284,7.363,11.235,5.237,13.972,4.002c0.435-3.114,1.676-5.237,3.047-6.442c-10.658-1.217-21.863-5.349-21.863-23.814
		c0-5.262,1.869-9.563,4.941-12.934c-0.496-1.22-2.143-6.117,0.468-12.752c0,0,4.032-1.295,13.199,4.939
		c3.831-1.069,7.936-1.603,12.019-1.623c4.078,0.021,8.183,0.554,12.017,1.623c9.162-6.234,13.186-4.939,13.186-4.939
		c2.619,6.635,0.973,11.532,0.477,12.752c3.078,3.371,4.936,7.672,4.936,12.934c0,18.511-11.223,22.586-21.914,23.778
		c1.721,1.488,3.258,4.428,3.258,8.925c0,6.442-0.061,11.638-0.061,13.219c0,1.289,0.863,2.789,3.301,2.316
		c19.059-6.385,32.799-24.436,32.799-45.718C98.199,24.669,76.707,3.095,50.196,3.095z"/>
</g>
</svg>
