<?xml version="1.0" encoding="utf-8"?>
<!-- Generator: Adobe Illustrator 16.0.0, SVG Export Plug-In . SVG Version: 6.00 Build 0)  -->
<!DOCTYPE svg PUBLIC "-//W3C//DTD SVG 1.1//EN" "http://www.w3.org/Graphics/SVG/1.1/DTD/svg11.dtd">
<svg version="1.1" id="Layer_1" xmlns="http://www.w3.org/2000/svg" xmlns:xlink="http://www.w3.org/1999/xlink" x="0px" y="0px"
	 width="100px" height="100px" viewBox="0 0 100 100" enable-background="new 0 0 100 100" xml:space="preserve">
<path id="Instagram_1_" fill="#21242D" d="M86.787,2.095H13.61c-6.303,0-11.411,5.097-11.411,11.385v73.23
	c0,6.288,5.108,11.385,11.411,11.385h73.177c6.303,0,11.412-5.097,11.412-11.385V13.48C98.199,7.192,93.09,2.095,86.787,2.095z
	 M71.199,17.095c0-1.656,1.344-3,3-3h9c1.654,0,3,1.344,3,3v9c0,1.656-1.346,3-3,3h-9c-1.656,0-3-1.344-3-3V17.095z M50.309,31.789
	c10.197,0,18.462,8.247,18.462,18.417c0,10.173-8.266,18.42-18.462,18.42c-10.193,0-18.459-8.247-18.459-18.42
	C31.85,40.036,40.116,31.789,50.309,31.789z M89.199,86.095c0,1.656-1.346,3-3,3h-72c-1.656,0-3-1.344-3-3v-45h12
	c-1.563,2.25-2.091,6.447-2.091,9.111c0,16.065,13.101,29.136,29.201,29.136c16.105,0,29.205-13.07,29.205-29.136
	c0-2.664-0.377-6.798-2.314-9.111h12V86.095z"/>
</svg>
