<?xml version="1.0" encoding="utf-8"?>
<!-- Generator: Adobe Illustrator 16.0.0, SVG Export Plug-In . SVG Version: 6.00 Build 0)  -->
<!DOCTYPE svg PUBLIC "-//W3C//DTD SVG 1.1//EN" "http://www.w3.org/Graphics/SVG/1.1/DTD/svg11.dtd">
<svg version="1.1" id="Layer_1" xmlns="http://www.w3.org/2000/svg" xmlns:xlink="http://www.w3.org/1999/xlink" x="0px" y="0px"
	 width="100px" height="100px" viewBox="0 0 100 100" enable-background="new 0 0 100 100" xml:space="preserve">
<g id="LinkedIn_1_">
	<rect x="8.418" y="35.749" fill="#21242D" width="17.151" height="54.346"/>
	<path fill="#21242D" d="M72.432,35.227c-9.826,0-15.982,5.322-17.121,9.052v-8.529H36.042c0.248,4.528,0,54.346,0,54.346h19.268
		V60.686c0-1.634-0.078-3.268,0.418-4.441c1.326-3.268,4.172-6.659,9.289-6.659c6.689,0,9.732,5.026,9.732,12.386v28.123h19.449
		V59.877C94.199,43.044,84.621,35.227,72.432,35.227z"/>
	<path fill="#21242D" d="M16.676,10.095c-6.334,0-10.478,4.068-10.478,9.436c0,5.266,4.025,9.42,10.234,9.42h0.124
		c6.447,0,10.462-4.169,10.462-9.436C26.895,14.152,23.004,10.095,16.676,10.095z"/>
</g>
</svg>
