<?xml version="1.0" encoding="utf-8"?>
<!-- Generator: Adobe Illustrator 16.0.0, SVG Export Plug-In . SVG Version: 6.00 Build 0)  -->
<!DOCTYPE svg PUBLIC "-//W3C//DTD SVG 1.1//EN" "http://www.w3.org/Graphics/SVG/1.1/DTD/svg11.dtd">
<svg version="1.1" id="Layer_1" xmlns="http://www.w3.org/2000/svg" xmlns:xlink="http://www.w3.org/1999/xlink" x="0px" y="0px"
	 width="1024px" height="1024px" viewBox="0 0 1024 1024" enable-background="new 0 0 1024 1024" xml:space="preserve">
<path fill="none" stroke="#000000" stroke-width="60" stroke-miterlimit="10" d="M131,469V191c0,0,8-85,85-85s595,0,595,0
	s83,6,83,83.5s0,643.5,0,643.5s0,86-85.5,86S215,919,215,919s-85-6-85-85s0-277,0-277"/>
<path opacity="0.75" fill="none" stroke="#000000" stroke-width="60" stroke-miterlimit="10" d="M437,647V393c0,0-8-52-62-52
	s-84,52-84,52v-88v112v230"/>
<path fill="none" stroke="#000000" stroke-width="60" stroke-miterlimit="10" d="M584,648V394c0,0-10.667-52-62-52
	c-54,0-84,52-84,52"/>
<g>
	<g>
		<path d="M285,759c31.179,0,62.358,0,93.538,0c63.666,0,127.331,0,190.997,0c51.343,0,102.687,0,154.029,0
			c7.146,0,14.291,0,21.437,0c16.354,0,30-13.646,30-30s-13.646-30-30-30c-31.18,0-62.358,0-93.538,0c-63.665,0-127.331,0-190.996,0
			c-51.343,0-102.686,0-154.029,0c-7.146,0-14.291,0-21.437,0c-16.354,0-30,13.646-30,30S268.646,759,285,759L285,759z"/>
	</g>
</g>
<polyline fill="none" stroke="#000000" stroke-width="60" stroke-miterlimit="10" points="436,647 436,417 436,305 "/>
<path fill="none" stroke="#000000" stroke-width="60" stroke-miterlimit="10" d="M582,647V393c0,0-8-52-62-52s-84,52-84,52"/>
<path fill="none" stroke="#000000" stroke-width="60" stroke-miterlimit="10" d="M729,647V393c0,0-10.667-52-62-52
	c-54,0-84,52-84,52"/>
</svg>
