<?xml version="1.0" encoding="utf-8"?>
<!-- Generator: Adobe Illustrator 16.0.0, SVG Export Plug-In . SVG Version: 6.00 Build 0)  -->
<!DOCTYPE svg PUBLIC "-//W3C//DTD SVG 1.1//EN" "http://www.w3.org/Graphics/SVG/1.1/DTD/svg11.dtd">
<svg version="1.1" id="Layer_1" xmlns="http://www.w3.org/2000/svg" xmlns:xlink="http://www.w3.org/1999/xlink" x="0px" y="0px"
	 width="1024px" height="1024px" viewBox="0 0 1024 1024" enable-background="new 0 0 1024 1024" xml:space="preserve">
<g>
	<defs>
		<rect id="SVGID_1_" width="1024" height="1024"/>
	</defs>
	<clipPath id="SVGID_2_">
		<use xlink:href="#SVGID_1_"  overflow="visible"/>
	</clipPath>
	<path clip-path="url(#SVGID_2_)" d="M76.127,615.373c15.754-0.361,31.509-0.724,47.263-1.085
		c14.068-0.322,28.239-0.162,42.273-1.256c44.492-3.47,82.132-29.516,106.232-66.305c16.034-24.477,28.29-51.443,37.637-79.11
		c8.538-25.276,15.631-51.005,24.473-76.184c9.961-28.37,20.911-56.81,35.068-83.386l-5.199,9.578
		c4.173-7.636,8.9-14.895,14.333-21.697c-2.532,3.124-5.063,6.248-7.595,9.372c3.594-4.381,7.432-8.496,11.624-12.312
		c-3.261,2.888-6.522,5.776-9.782,8.664c3.28-2.889,6.711-5.539,10.376-7.921c-3.675,2.338-7.35,4.677-11.025,7.015
		c2.752-1.709,5.56-3.225,8.514-4.554c-3.701,1.572-7.402,3.144-11.102,4.716c2.884-1.215,5.79-2.197,8.829-2.948
		c-3.547,0.785-7.094,1.571-10.641,2.357c3.444-0.75,6.868-1.145,10.393-1.17c-3.213-0.021-6.427-0.041-9.64-0.062
		c2.219,0.053,4.38,0.206,6.557,0.649c-2.7-0.847-5.401-1.695-8.101-2.542c1.421,0.448,2.386,0.91,3.607,1.769
		c-2.008-1.695-4.015-3.39-6.023-5.085c1.163,1.201,1.788,2.181,2.502,3.696c-1.076-2.397-2.152-4.794-3.227-7.192
		c2.75,7.976,3.322,17.03,4.463,25.362c1.173,8.558,2.185,17.137,3.105,25.726c1.881,17.558,3.371,35.154,5.021,52.734
		c3.094,32.972,7.029,65.948,13.848,98.385c5.957,28.341,15.256,57.401,32.386,81.102c8.477,11.729,19.209,21.857,30.913,30.332
		c6.952,5.034,14.05,7.966,22.343,10.295c13.895,3.903,29.956-0.848,42.256-7.308c27.334-14.357,45.895-42.229,55.252-71.059
		c6.427-19.8,10.056-40.274,15.599-60.301c-0.866,3.095-1.732,6.189-2.599,9.284c4.269-14.995,9.634-29.805,15.018-44.435
		c5.067-13.771,10.687-27.486,17.449-40.521c-1.733,3.193-3.467,6.386-5.199,9.578c1.336-2.358,2.932-4.518,4.634-6.624
		c-2.532,3.124-5.063,6.248-7.594,9.372c2.368-2.832,4.906-5.484,7.626-7.981c-3.261,2.888-6.521,5.776-9.781,8.664
		c2.076-1.839,4.214-3.547,6.522-5.087c-3.675,2.338-7.35,4.676-11.024,7.014c1.163-0.726,2.335-1.385,3.574-1.974
		c-3.7,1.572-7.401,3.145-11.103,4.717c0.827-0.344,1.619-0.629,2.48-0.871c-3.547,0.786-7.095,1.572-10.642,2.358
		c0.77-0.155,1.445-0.238,2.229-0.247c-3.213-0.02-6.426-0.041-9.641-0.061c0.447,0.017,0.885,0.093,1.312,0.226
		c-2.701-0.847-5.401-1.695-8.102-2.542c1.008,0.407,1.786,0.97,2.643,1.645c-2.007-1.695-4.016-3.39-6.023-5.085
		c2.045,2.034,3.402,4.357,4.647,6.947c-1.076-2.397-2.152-4.794-3.229-7.191c5.587,12.711,9.863,26.077,15.012,38.979
		c5.976,14.977,12.374,29.785,19.188,44.399c11.139,23.886,23.963,47.367,40.702,67.836c16.279,19.907,37.208,38.245,61.594,47.267
		c29.53,10.925,60.306,11.726,91.347,8.153c29.687-3.418,59.037-10.316,89.046-10.364c-3.213-0.021-6.427-0.041-9.641-0.061
		c13.437,0.088,26.722,1.666,39.604,5.574c-2.701-0.848-5.401-1.694-8.102-2.543c4.381,1.395,8.655,3.023,12.853,4.899
		c9.056,4.05,19.122,3.164,28.382,0.247c11.376-3.585,23.93-11.534,31.908-20.396c6.899-7.663,14.686-17.517,15.392-28.233
		c0.523-7.949-1.202-17.07-9.462-20.765c-31.963-14.293-66.709-15.142-100.978-11.033c-29.38,3.521-58.481,10.267-88.203,10.142
		c3.214,0.021,6.427,0.042,9.64,0.062c-12.877-0.162-25.604-1.724-37.96-5.438c2.701,0.847,5.401,1.695,8.101,2.543
		c-14.812-4.675-28.133-12.356-40.029-22.291l6.022,5.085c-29.983-25.54-49.333-61.581-65.294-96.97
		c1.075,2.397,2.151,4.795,3.228,7.192c-7.964-17.783-15.131-35.905-21.975-54.145c-4.704-12.539-8.101-25.846-19.551-33.956
		c-14.491-10.265-37.033-2.765-50.804,5.12c-13.062,7.478-25.249,17.006-35.118,28.417c-4.141,4.789-8.613,9.941-12.09,15.382
		c-4.14,6.477-7.433,13.635-10.681,20.607c-7.992,17.146-14.396,34.883-20.485,52.776c-4.627,13.596-8.953,27.203-12.403,41.161
		c-2.84,11.491-5.22,23.091-8.382,34.501c0.865-3.094,1.731-6.189,2.597-9.283c-2.756,9.666-6.146,19.021-10.947,27.872l5.199-9.579
		c-1.891,3.411-3.87,6.705-6.233,9.813c2.531-3.124,5.062-6.248,7.594-9.372c-1.005,1.211-2.017,2.323-3.142,3.424
		c3.261-2.888,6.521-5.776,9.782-8.664c-0.725,0.672-1.494,1.289-2.307,1.854c3.675-2.34,7.35-4.678,11.025-7.016
		c-0.652,0.464-1.34,0.863-2.066,1.197c3.701-1.572,7.401-3.145,11.103-4.717c-0.576,0.254-1.173,0.447-1.787,0.585
		c3.547-0.786,7.094-1.572,10.641-2.358c-0.997,0.176-1.902,0.253-2.915,0.263c3.214,0.021,6.427,0.042,9.64,0.063
		c-1.843-0.112-3.562-0.461-5.331-0.978c2.7,0.848,5.401,1.695,8.102,2.542c-7.504-2.543-14.04-7.296-20.073-12.321l6.023,5.084
		c-14.524-12.396-25.361-28.131-33.189-45.465c1.076,2.397,2.152,4.794,3.227,7.191c-15.146-34.349-20.409-73.228-24.94-110.199
		c-5.418-44.201-7.299-88.831-14.628-132.796c-1.06-6.363-2.871-12.804-6.613-18.173c-4.838-6.943-14.667-10.403-22.664-10.989
		c-13.841-1.015-27.92,0.718-40.898,5.788c-30.346,11.855-54.19,32.469-73.712,58.215c-13.153,17.347-22.451,37.759-31.124,57.641
		c-8.171,18.732-15.466,37.848-22.164,57.153c-14.498,41.786-24.238,85.441-45.307,124.654c1.733-3.192,3.467-6.385,5.2-9.578
		c-5.159,9.453-10.598,18.763-17.253,27.252c2.531-3.124,5.063-6.248,7.594-9.372c-2.682,3.31-5.521,6.426-8.644,9.323
		c3.261-2.888,6.521-5.775,9.782-8.664c-2.419,2.139-4.932,4.064-7.636,5.833c3.675-2.338,7.35-4.676,11.025-7.014
		c-2.423,1.474-4.892,2.769-7.479,3.928c3.7-1.571,7.401-3.144,11.102-4.717c-3.578,1.478-7.194,2.623-10.955,3.531
		c3.546-0.786,7.093-1.572,10.64-2.358c-15.972,3.486-32.726,2.807-48.98,3.179c-18.38,0.423-36.76,0.845-55.141,1.267
		c-10.853,0.249-24.495,7.855-32.767,14.09c-8.684,6.543-18.816,17.039-22.575,27.614c-2.716,7.64-5.229,18.063,0.841,24.963
		C58.706,614.895,66.979,615.583,76.127,615.373"/>
	<path clip-path="url(#SVGID_2_)" d="M213.058,829.628c4.152-4.946,8.642-9.529,13.474-13.813c-3.261,2.888-6.521,5.776-9.782,8.664
		c5.291-4.575,10.881-8.721,16.759-12.51c-3.675,2.338-7.35,4.676-11.025,7.015c7.784-4.899,15.931-9.102,24.385-12.721
		c-3.701,1.572-7.401,3.144-11.102,4.717c11.836-4.944,24.073-8.638,36.575-11.479c-3.547,0.785-7.094,1.571-10.64,2.357
		c35.452-7.792,72.213-9.385,108.367-11.138c37.374-1.813,74.794-2.459,112.208-2.244c-3.213-0.021-6.426-0.042-9.64-0.062
		c101.5,0.667,202.807,7.799,303.903,16.393c28.424,2.417,56.839,4.947,85.254,7.479c10.966,0.978,21.687-1.953,31.382-7.013
		c10.459-5.457,22.105-14.882,28.401-25.051c4.704-7.596,10.413-18.108,7.586-27.35c-2.456-8.028-8.544-14.034-17.351-14.818
		c-97.472-8.686-194.993-17.359-292.787-21.469c-51.188-2.152-102.456-3.043-153.687-2.257
		c-48.195,0.741-97.076,1.936-144.908,8.289c-59.823,7.947-121.846,30.646-161.733,78.161c-6.741,8.031-14.136,17.312-15.392,28.234
		c-0.891,7.754,1.738,17.104,9.462,20.764c8.792,4.165,19.413,3.383,28.382,0.246C192.81,845.945,205.048,839.17,213.058,829.628"/>
</g>
</svg>
