<?xml version="1.0" encoding="utf-8"?>
<!-- Generator: Adobe Illustrator 16.0.0, SVG Export Plug-In . SVG Version: 6.00 Build 0)  -->
<!DOCTYPE svg PUBLIC "-//W3C//DTD SVG 1.1//EN" "http://www.w3.org/Graphics/SVG/1.1/DTD/svg11.dtd">
<svg version="1.1" id="Layer_1" xmlns="http://www.w3.org/2000/svg" xmlns:xlink="http://www.w3.org/1999/xlink" x="0px" y="0px"
	 width="500px" height="500px" viewBox="0 0 500 500" enable-background="new 0 0 500 500" xml:space="preserve">
<g>
	<g>
		<path fill="#FDEDA7" d="M294.451,296.447c0-48.696,0-97.392,0-146.087c0-21.686,0-43.371,0-65.057
			c-9.821,1.329-19.643,2.658-29.464,3.988c17.25,44.409,34.501,88.818,51.751,133.227c10.089,25.972,20.178,51.945,30.267,77.917
			c2.453,6.316,7.271,11.013,14.464,11.013c8.177,0,15-6.823,15-15c0-49.53,0-99.061,0-148.591c0-4.65,0-9.3,0-13.95
			c-9.317,2.523-18.635,5.047-27.952,7.571c20.194,45.658,40.389,91.315,60.583,136.972c3.77,8.523,7.539,17.046,11.309,25.568
			c3.309,7.481,14.072,9.16,20.523,5.382c7.637-4.474,8.688-13.045,5.381-20.522c-20.194-45.658-40.389-91.315-60.583-136.973
			c-3.77-8.523-7.539-17.045-11.309-25.568c-2.679-6.056-11.014-8.523-16.939-6.894c-6.435,1.77-11.013,7.793-11.013,14.464
			c0,49.53,0,99.061,0,148.591c0,4.65,0,9.3,0,13.95c9.821-1.329,19.643-2.658,29.464-3.987
			c-17.25-44.41-34.501-88.818-51.751-133.228c-10.089-25.973-20.178-51.945-30.267-77.917c-2.453-6.316-7.271-11.012-14.464-11.012
			c-8.177,0-15,6.823-15,15c0,48.696,0,97.392,0,146.087c0,21.686,0,43.371,0,65.057
			C264.451,315.793,294.451,315.793,294.451,296.447L294.451,296.447z"/>
	</g>
</g>
<g>
	<g>
		<path fill="#FDEDA7" d="M235.549,296.447c0-48.696,0-97.392,0-146.087c0-21.686,0-43.371,0-65.057
			c0-6.671-4.578-12.694-11.012-14.464c-8.493-2.336-15.494,2.862-18.452,10.477c-17.25,44.409-34.501,88.818-51.751,133.228
			c-10.089,25.972-20.178,51.944-30.267,77.917c9.822,1.329,19.643,2.658,29.464,3.987c0-49.53,0-99.061,0-148.591
			c0-4.65,0-9.3,0-13.95c0-6.671-4.578-12.694-11.012-14.464c-5.926-1.63-14.261,0.838-16.94,6.894
			c-20.194,45.658-40.389,91.315-60.583,136.972c-3.77,8.523-7.54,17.046-11.309,25.569c-3.308,7.478-2.255,16.049,5.381,20.522
			c6.451,3.778,17.214,2.1,20.523-5.382c20.194-45.657,40.389-91.314,60.583-136.972c3.77-8.523,7.54-17.045,11.309-25.568
			c-9.317-2.523-18.635-5.047-27.952-7.571c0,49.53,0,99.061,0,148.591c0,4.65,0,9.3,0,13.95c0,6.671,4.578,12.694,11.012,14.464
			c8.493,2.336,15.494-2.861,18.452-10.477c17.25-44.409,34.501-88.818,51.751-133.227c10.089-25.972,20.178-51.944,30.267-77.917
			c-9.822-1.33-19.643-2.659-29.464-3.988c0,48.696,0,97.392,0,146.087c0,21.686,0,43.371,0,65.057
			C205.549,315.793,235.549,315.793,235.549,296.447L235.549,296.447z"/>
	</g>
</g>
<g>
	<g>
		<path fill="#FDEDA7" d="M468.363,250c-0.017,5.604-0.214,11.196-0.595,16.786c-0.188,2.764-0.449,5.521-0.735,8.275
			c-0.143,1.37-0.309,2.738-0.475,4.106c-0.229,1.786-0.232,1.818-0.011,0.096c-0.129,0.904-0.263,1.808-0.402,2.71
			c-1.692,11.157-4.294,22.166-7.589,32.953c-1.562,5.111-3.344,10.153-5.255,15.143c-0.476,1.243-0.973,2.477-1.47,3.711
			c-1.647,4.09,1.196-2.732-0.543,1.314c-1.221,2.84-2.521,5.645-3.854,8.433c-4.733,9.904-10.25,19.425-16.329,28.561
			c-1.453,2.185-2.962,4.331-4.487,6.466c-0.763,1.065-1.543,2.119-2.323,3.172c-0.223,0.301-2.868,3.755-0.832,1.131
			c-3.478,4.481-7.153,8.805-10.945,13.021c-7.291,8.105-15.208,15.636-23.551,22.649c-2.004,1.685-4.051,3.318-6.11,4.936
			c2.611-2.05-0.83,0.607-1.131,0.832c-1.049,0.786-2.11,1.555-3.172,2.323c-4.609,3.335-9.366,6.462-14.205,9.451
			c-9.361,5.783-19.173,10.819-29.254,15.22c-4.037,1.763,2.767-1.128-1.314,0.543c-1.231,0.504-2.471,0.987-3.711,1.47
			c-2.485,0.969-4.995,1.872-7.512,2.754c-5.487,1.922-11.061,3.589-16.675,5.092c-5.232,1.401-10.524,2.572-15.841,3.604
			c-2.679,0.52-5.372,0.968-8.068,1.394c-0.391,0.062-4.895,0.7-1.442,0.238c-1.82,0.243-3.645,0.449-5.47,0.649
			c-11.579,1.271-23.255,1.574-34.89,1.127c-5.549-0.214-11.085-0.672-16.604-1.277c-1.368-0.15-2.733-0.324-4.099-0.499
			c3.454,0.441-1.05-0.179-1.443-0.238c-3.147-0.478-6.279-1.047-9.404-1.653c-11.018-2.137-21.852-5.169-32.44-8.878
			c-2.516-0.882-5.008-1.828-7.492-2.796c-1.239-0.482-2.469-0.986-3.7-1.49c3.112,1.274-0.95-0.417-1.301-0.569
			c-5.252-2.293-10.398-4.824-15.466-7.499c-9.689-5.113-18.966-10.99-27.839-17.41c-1.062-0.769-2.11-1.555-3.159-2.34
			c-3.479-2.608,2.307,1.829-1.112-0.855c-2.06-1.616-4.078-3.285-6.082-4.97c-4.339-3.647-8.514-7.487-12.578-11.439
			c-3.75-3.647-7.348-7.45-10.846-11.34c-1.75-1.946-3.451-3.936-5.135-5.938c-0.842-1.002-1.668-2.018-2.493-3.034
			c-0.354-0.437-3.703-4.729-1.698-2.114c-6.662-8.685-12.636-17.886-18.015-27.414c-2.596-4.599-4.996-9.307-7.272-14.07
			c-1.143-2.392-2.224-4.811-3.284-7.239c-1.762-4.037,1.128,2.767-0.543-1.314c-0.672-1.643-1.312-3.298-1.946-4.954
			c-4.002-10.451-7.152-21.219-9.603-32.134c-1.193-5.317-2.153-10.686-2.97-16.072c-0.683-4.5,0.37,3.072-0.208-1.452
			c-0.174-1.367-0.325-2.736-0.475-4.106c-0.353-3.214-0.61-6.438-0.83-9.662c-0.792-11.637-0.622-23.331,0.308-34.953
			c0.22-2.755,0.514-5.503,0.831-8.248c0.045-0.391,0.659-4.916,0.176-1.463c0.189-1.356,0.403-2.708,0.616-4.061
			c0.917-5.819,2.107-11.592,3.464-17.323c2.574-10.869,6.027-21.519,10.14-31.899c0.139-0.352,1.828-4.43,0.516-1.329
			c0.517-1.222,1.054-2.435,1.592-3.647c1.073-2.42,2.208-4.813,3.363-7.195c2.494-5.143,5.221-10.171,8.086-15.116
			c2.636-4.548,5.463-8.983,8.399-13.343c1.465-2.176,2.985-4.314,4.523-6.439c0.769-1.062,1.554-2.11,2.34-3.159
			c1.04-1.364,1.056-1.392,0.046-0.082c0.537-0.688,1.078-1.374,1.623-2.056c6.78-8.539,14.223-16.541,22.122-24.053
			c3.792-3.607,7.734-7.054,11.758-10.399c1.006-0.836,2.027-1.656,3.048-2.476c0.292-0.235,3.728-2.898,1.094-0.878
			c2.427-1.861,4.905-3.655,7.402-5.419c8.955-6.328,18.401-11.945,28.152-16.951c4.711-2.418,9.524-4.635,14.389-6.725
			c-3.093,1.329,0.977-0.374,1.329-0.516c1.235-0.498,2.478-0.974,3.721-1.45c2.909-1.114,5.849-2.144,8.799-3.139
			c10.658-3.596,21.601-6.317,32.664-8.329c2.69-0.489,5.394-0.907,8.099-1.302c-3.449,0.502,1.071-0.128,1.463-0.176
			c1.369-0.167,2.741-0.309,4.113-0.451c6.001-0.623,12.029-0.96,18.06-1.121c11.622-0.31,23.259,0.335,34.796,1.739
			c4.528,0.551-3.052-0.448,1.452,0.208c1.354,0.197,2.704,0.418,4.054,0.639c2.688,0.44,5.365,0.951,8.037,1.486
			c5.742,1.148,11.429,2.564,17.066,4.145c5.158,1.446,10.253,3.115,15.298,4.915c2.509,0.896,4.995,1.855,7.472,2.837
			c0.352,0.139,4.431,1.828,1.329,0.516c1.628,0.689,3.242,1.41,4.854,2.136c10.022,4.512,19.678,9.819,28.96,15.699
			c4.435,2.809,8.748,5.803,12.982,8.903c1.058,0.774,2.102,1.566,3.146,2.357c-2.645-2.005,0.799,0.644,1.094,0.878
			c2.392,1.899,4.73,3.865,7.046,5.855c8.266,7.108,15.971,14.855,23.168,23.04c1.729,1.965,3.407,3.974,5.068,5.996
			c0.832,1.011,1.646,2.037,2.46,3.062c2.703,3.404-1.772-2.353,0.855,1.112c3.435,4.529,6.664,9.211,9.76,13.978
			c5.983,9.215,11.233,18.897,15.856,28.861c0.744,1.604,1.456,3.221,2.163,4.841c0.686,1.597,0.698,1.625,0.039,0.085
			c0.511,1.228,1.001,2.464,1.49,3.7c1.475,3.721,2.819,7.492,4.099,11.283c2.582,7.652,4.695,15.457,6.464,23.335
			c0.894,3.982,1.647,7.995,2.33,12.018c0.306,1.799,0.574,3.604,0.837,5.41c-0.466-3.2,0.388,3.312,0.485,4.203
			C467.946,233.259,468.339,241.632,468.363,250c0.058,19.343,30.058,19.349,30,0c-0.139-46.865-13.385-93.214-38.48-132.833
			c-24.285-38.337-59.304-69.896-100.024-89.93c-42.439-20.879-90.65-29.402-137.66-23.962
			c-47.281,5.472-91.105,24.116-128.324,53.671C58.116,85.342,31.446,124.176,15.906,166.95
			c-16.228,44.667-18.264,94.187-7.614,140.358c20.833,90.327,94.463,163.104,184.4,184.4c91.89,21.76,191.188-11.913,250.36-85.583
			c35.561-44.271,55.143-99.291,55.311-156.125C498.421,230.651,468.421,230.657,468.363,250z"/>
	</g>
</g>
<g>
	<g>
		<path fill="#FDEDA7" d="M91,361.333c40.278,0,80.556,0,120.834,0c58.327,0,116.654,0,174.981,0c7.396,0,14.79,0,22.185,0
			c19.346,0,19.346-30,0-30c-40.278,0-80.557,0-120.834,0c-58.328,0-116.655,0-174.982,0c-7.395,0-14.79,0-22.184,0
			C71.654,331.333,71.654,361.333,91,361.333L91,361.333z"/>
	</g>
</g>
</svg>
