<?xml version="1.0" encoding="utf-8"?>
<!-- Generator: Adobe Illustrator 16.0.0, SVG Export Plug-In . SVG Version: 6.00 Build 0)  -->
<!DOCTYPE svg PUBLIC "-//W3C//DTD SVG 1.1//EN" "http://www.w3.org/Graphics/SVG/1.1/DTD/svg11.dtd">
<svg version="1.1" id="Layer_1" xmlns="http://www.w3.org/2000/svg" xmlns:xlink="http://www.w3.org/1999/xlink" x="0px" y="0px"
	 width="100px" height="100px" viewBox="0 0 100 100" enable-background="new 0 0 100 100" xml:space="preserve">
<path id="Twitter_1_" fill="#21242D" d="M95.551,11.574c-3.811,2.312-8.02,3.993-12.516,4.895
	c-3.584-3.924-8.705-6.374-14.375-6.374c-10.869,0-19.687,9.043-19.687,20.195c0,1.583,0.169,3.121,0.507,4.6
	c-16.369-0.844-30.879-8.875-40.599-21.108c-1.696,2.993-2.665,6.465-2.665,10.164c0,7.003,3.477,13.187,8.762,16.809
	c-3.223-0.098-6.266-1.017-8.925-2.519v0.248c0,9.789,6.789,17.953,15.805,19.802c-1.65,0.475-3.392,0.711-5.189,0.711
	c-1.268,0-2.508-0.121-3.707-0.357c2.507,8.02,9.775,13.861,18.397,14.018c-6.739,5.42-15.236,8.65-24.461,8.65
	c-1.589,0-3.161-0.093-4.699-0.277c8.717,5.721,19.073,9.065,30.191,9.065c36.231,0,56.038-30.769,56.038-57.459
	c0-0.878-0.018-1.756-0.051-2.617c3.848-2.849,7.189-6.402,9.822-10.453c-3.527,1.606-7.326,2.693-11.311,3.178
	C90.957,20.247,94.08,16.29,95.551,11.574z"/>
</svg>
