<?xml version="1.0" encoding="utf-8"?>
<!-- Generator: Adobe Illustrator 16.0.0, SVG Export Plug-In . SVG Version: 6.00 Build 0)  -->
<!DOCTYPE svg PUBLIC "-//W3C//DTD SVG 1.1//EN" "http://www.w3.org/Graphics/SVG/1.1/DTD/svg11.dtd">
<svg version="1.1" id="Layer_1" xmlns="http://www.w3.org/2000/svg" xmlns:xlink="http://www.w3.org/1999/xlink" x="0px" y="0px"
	 width="500px" height="500px" viewBox="0 0 500 500" enable-background="new 0 0 500 500" xml:space="preserve">
<g id="browser-web-content">
	<g>
		<circle fill="#F4F1F0" cx="250" cy="250" r="250"/>
		<g id="_x33_8">
			<g>
				<path fill="#675F58" d="M362.782,140.077H137.218c-14.404,0.027-26.096,11.708-26.107,26.117v167.623
					c0.011,14.403,11.702,26.09,26.107,26.111h225.564c14.403-0.023,26.096-11.708,26.106-26.111V166.194
					C388.878,151.785,377.186,140.104,362.782,140.077z M360.01,156.815c3.277,0,5.94,2.658,5.94,5.935s-2.663,5.93-5.94,5.93
					c-3.282,0-5.936-2.653-5.936-5.93S356.727,156.815,360.01,156.815z M313.357,157.167h29.188c3.092,0,5.582,2.506,5.582,5.583
					c0,3.082-2.49,5.582-5.582,5.582h-29.188c-3.094,0-5.583-2.501-5.583-5.582C307.774,159.673,310.265,157.167,313.357,157.167z
					 M374.652,333.816c-0.021,6.482-5.388,11.865-11.87,11.865H137.218c-6.483,0-11.849-5.383-11.871-11.865V182.938h249.305
					V333.816L374.652,333.816z"/>
			</g>
			<g>
				<rect x="149.094" y="316.135" fill="#B5C4C7" width="94.445" height="11.893"/>
				<rect x="256.462" y="316.135" fill="#B5C4C7" width="94.444" height="11.893"/>
				<g>
					<rect x="241.678" y="220.529" fill="#817B75" width="109.229" height="5.556"/>
					<rect x="241.678" y="203.027" fill="#817B75" width="109.229" height="5.556"/>
					<rect x="241.678" y="238.026" fill="#817B75" width="109.229" height="5.556"/>
					<rect x="241.678" y="255.527" fill="#817B75" width="109.229" height="5.557"/>
					<rect x="149.984" y="296.777" fill="#817B75" width="200.922" height="5.556"/>
					<rect x="149.984" y="279.275" fill="#817B75" width="200.922" height="5.556"/>
				</g>
				<g>
					<path fill="#6F9196" d="M149.094,257.979c0,3.055,2.501,5.557,5.556,5.557h61.111c3.055,0,5.556-2.502,5.556-5.557v-52.615
						c0-3.055-2.501-5.556-5.556-5.556H154.65c-3.054,0-5.556,2.501-5.556,5.556V257.979z"/>
					<path fill="#675F58" d="M213.135,224.577l5.751,5.746v24.083c0,6.842-4.384,9.186-9.736,9.186h-15.025h-17.136h-15.025
						c-5.36,0-9.744-2.344-9.744-9.186v-5.463l17.036-15.641c3.157-2.898,5.165-3.972,6.741-3.944
						c1.622-0.038,3.741,1.145,7.053,3.955l20.071,18.43c0.293,0.267,0.659,0.401,1.031,0.401c0.412,0,0.822-0.168,1.126-0.494
						c0.572-0.617,0.531-1.589-0.095-2.158l-13.213-12.131l12.812-12.815c2.073-2.072,3.329-2.723,4.069-2.685
						C209.611,221.81,210.956,222.548,213.135,224.577z"/>
					<path fill="#F4F1F0" d="M177.938,219.585c0-4.6,3.73-8.333,8.338-8.333c4.596,0,8.328,3.733,8.328,8.333
						c0,4.595-3.732,8.333-8.328,8.333C181.668,227.919,177.938,224.181,177.938,219.585z"/>
				</g>
			</g>
		</g>
	</g>
</g>
<g id="Layer_1_1_">
</g>
</svg>
